<svg width="384" height="544" viewBox="0 0 384 544" fill="none" preserveAspectRatio="none"
  xmlns="http://www.w3.org/2000/svg">
  <path d="M376.272 -1.90735e-05L384 36.2666L337.634 36.2666L330.667 -1.90735e-05L376.272 -1.90735e-05Z" fill="#F994B4"
    fill-opacity="0.4" />
  <path d="M376.272 36.2678L384 108.801H337.634L330.667 36.2678H376.272Z" fill="#F994B4" fill-opacity="0.4" />
  <path d="M376.272 108.8L384 217.6H337.634L330.667 108.8H376.272Z" fill="#F994B4" fill-opacity="0.4" />
  <path d="M376.272 217.6L384 362.667H337.634L330.667 217.6H376.272Z" fill="#F994B4" fill-opacity="0.4" />
  <path d="M376.272 362.667L384 544H337.634L330.667 362.667H376.272Z" fill="#F994B4" fill-opacity="0.4" />
  <path d="M315.212 -1.90735e-05L330.667 36.2666L237.936 36.2666L224.001 -1.90735e-05L315.212 -1.90735e-05Z"
    fill="#F994B4" fill-opacity="0.6" />
  <path d="M315.212 36.268L330.667 108.801L237.936 108.801L224.001 36.268L315.212 36.268Z" fill="#F994B4"
    fill-opacity="0.6" />
  <path d="M315.212 108.8L330.667 217.6H237.936L224.001 108.8L315.212 108.8Z" fill="#F994B4" fill-opacity="0.6" />
  <path d="M315.212 217.6L330.667 362.667H237.936L224.001 217.6H315.212Z" fill="#F994B4" fill-opacity="0.6" />
  <path d="M315.212 362.667L330.667 544H237.936L224.001 362.667H315.212Z" fill="#F994B4" fill-opacity="0.6" />
  <path d="M200.817 -1.87159e-05L224 36.2666L84.9027 36.2666L64.0001 -1.87159e-05L200.817 -1.87159e-05Z" fill="#69BD7A"
    fill-opacity="0.6" />
  <path d="M200.817 36.268L224 108.801L84.9027 108.801L64.0001 36.268L200.817 36.268Z" fill="#69BD7A"
    fill-opacity="0.6" />
  <path d="M200.817 108.8L224 217.6L84.9027 217.6L64.0001 108.8L200.817 108.8Z" fill="#69BD7A" fill-opacity="0.6" />
  <path d="M200.817 217.6L224 362.667H84.9027L64.0001 217.6L200.817 217.6Z" fill="#69BD7A" fill-opacity="0.6" />
  <path d="M200.817 362.667L224 544H84.9027L64.0001 362.667H200.817Z" fill="#69BD7A" fill-opacity="0.6" />
  <path d="M33.0895 36.268L64 108.801L-1.54972e-06 108.801L-1.54972e-06 36.268L33.0895 36.268Z" fill="#69BD7A"
    fill-opacity="0.8" />
  <path d="M33.0895 108.8L64 217.6H-1.54972e-06L-1.54972e-06 108.8L33.0895 108.8Z" fill="#69BD7A" fill-opacity="0.8" />
  <path d="M33.0895 217.6L64 362.667H-1.54972e-06L-1.54972e-06 217.6H33.0895Z" fill="#69BD7A" fill-opacity="0.8" />
  <path d="M33.0895 362.667L64 544H25C11.1929 544 0 532.807 0 519L0 362.667H33.0895Z" fill="#69BD7A"
    fill-opacity="0.8" />
  <path
    d="M33.0895 -1.90735e-05L64 36.2666L0 36.2666V33.0895C0 25.5672 0 21.806 0.802993 18.7147C3.08295 9.93734 9.93736 3.08293 18.7147 0.802974C21.8061 -1.90735e-05 25.5672 -1.90735e-05 33.0895 -1.90735e-05V-1.90735e-05Z"
    fill="#69BD7A" fill-opacity="0.8" />
</svg>