<svg width="1440" height="101" viewBox="0 0 1440 101" fill="none" xmlns="http://www.w3.org/2000/svg">
<path d="M994.001 97.6503L1003.56 100.065V85.5759L994.001 83.3985V97.6503Z" fill="#F97AA2" fill-opacity="0.8"/>
<path d="M1003.56 97.6503L1022.67 100.065V85.5759L1003.56 83.3985V97.6503Z" fill="#F97AA2" fill-opacity="0.8"/>
<path d="M1022.67 97.6503L1051.34 100.065V85.5759L1022.67 83.3985V97.6503Z" fill="#F97AA2" fill-opacity="0.8"/>
<path d="M1051.34 97.6503L1089.57 100.065V85.5759L1051.34 83.3985V97.6503Z" fill="#F97AA2" fill-opacity="0.8"/>
<path d="M994 78.5684L1003.56 83.3982V54.4196L994 50.0649V78.5684Z" fill="#F97AA2"/>
<path d="M1003.56 78.5684L1022.67 83.3982V54.4196L1003.56 50.0649V78.5684Z" fill="#F97AA2"/>
<path d="M1022.67 78.5684L1051.34 83.3982V54.4196L1022.67 50.0649V78.5684Z" fill="#F97AA2"/>
<path d="M1051.34 78.5684L1089.57 83.3982V54.4196L1051.34 50.0649V78.5684Z" fill="#F97AA2"/>
<path d="M994 42.7555L1003.56 50.0001V6.53217L994 0.000102997V42.7555Z" fill="#7EC18C"/>
<path d="M1003.56 42.7555L1022.67 50.0001V6.53217L1003.56 0.000102997V42.7555Z" fill="#7EC18C"/>
<path d="M1022.67 42.7555L1051.34 50.0001V6.53217L1022.67 0.000102997V42.7555Z" fill="#7EC18C"/>
<path d="M1051.34 42.7555L1089.57 50.0001V6.53217L1051.34 0.000102997V42.7555Z" fill="#7EC18C"/>
<path d="M1089.57 97.6503L1137.36 100.065V85.5759L1089.57 83.3985V97.6503Z" fill="#F97AA2" fill-opacity="0.8"/>
<path d="M1089.57 78.5684L1137.36 83.3982V54.4196L1089.57 50.0649V78.5684Z" fill="#F97AA2"/>
<path d="M1089.57 42.7555L1137.36 50.0001V6.53217L1089.57 0.000102997V42.7555Z" fill="#7EC18C"/>
<path d="M1296.64 97.6503L1440 100.065V85.5759L1296.64 83.3985V97.6503Z" fill="#F97AA2" fill-opacity="0.8"/>
<path d="M1296.64 78.5684L1440 83.3982V54.4196L1296.64 50.0649V78.5684Z" fill="#F97AA2"/>
<path d="M1296.64 42.7555L1440 50.0001V6.53217L1296.64 0.000102997V42.7555Z" fill="#7EC18C"/>
<path d="M1137.36 97.6503L1201.07 100.065V85.5759L1137.36 83.3985V97.6503Z" fill="#F97AA2" fill-opacity="0.8"/>
<path d="M1137.36 78.5684L1201.07 83.3982V54.4196L1137.36 50.0649V78.5684Z" fill="#F97AA2"/>
<path d="M1137.36 42.7555L1201.07 50.0001V6.53217L1137.36 0.000102997V42.7555Z" fill="#7EC18C"/>
<path d="M1201.07 97.6503L1296.64 100.065V85.5759L1201.07 83.3985V97.6503Z" fill="#F97AA2" fill-opacity="0.8"/>
<path d="M1201.07 78.5684L1296.64 83.3982V54.4196L1201.07 50.0649V78.5684Z" fill="#F97AA2"/>
<path d="M1201.07 42.7555L1296.64 50.0001V6.53217L1201.07 0.000102997V42.7555Z" fill="#7EC18C"/>
<g opacity="0.9">
<path d="M993.999 97.6503L972.699 100.065V85.5759L993.999 83.3985V97.6503Z" fill="#F97AA2" fill-opacity="0.8"/>
<path d="M972.698 97.6503L930.098 100.065V85.5759L972.698 83.3985V97.6503Z" fill="#F97AA2" fill-opacity="0.8"/>
<path d="M930.098 97.6503L866.198 100.065V85.5759L930.098 83.3985V97.6503Z" fill="#F97AA2" fill-opacity="0.8"/>
<path d="M866.199 97.6503L780.999 100.065V85.5759L866.199 83.3985V97.6503Z" fill="#F97AA2" fill-opacity="0.8"/>
<path d="M994 78.5684L972.7 83.3982V54.4196L994 50.0649V78.5684Z" fill="#F97AA2"/>
<path d="M972.697 78.5684L930.097 83.3982V54.4196L972.697 50.0649V78.5684Z" fill="#F97AA2"/>
<path d="M930.099 78.5684L866.199 83.3982V54.4196L930.099 50.0649V78.5684Z" fill="#F97AA2"/>
<path d="M866.2 78.5684L781 83.3982V54.4196L866.2 50.0649V78.5684Z" fill="#F97AA2"/>
<path d="M993.968 42.7555L972.668 50.0001V6.53219L993.968 0.000125885V42.7555Z" fill="#7EC18C"/>
<path d="M972.665 42.7555L930.065 50.0001V6.53219L972.665 0.000125885V42.7555Z" fill="#7EC18C"/>
<path d="M930.066 42.7555L866.167 50.0001V6.53219L930.066 0.000125885V42.7555Z" fill="#7EC18C"/>
<path d="M866.167 42.7555L780.968 50.0001V6.53219L866.167 0.000125885V42.7555Z" fill="#7EC18C"/>
<path d="M780.999 97.6503L674.499 100.065V85.5759L780.999 83.3985V97.6503Z" fill="#F97AA2" fill-opacity="0.8"/>
<path d="M780.999 78.5684L674.499 83.3982V54.4196L780.999 50.0649V78.5684Z" fill="#F97AA2"/>
<path d="M780.978 42.7555L674.479 50.0001V6.53219L780.978 0.000125885V42.7555Z" fill="#7EC18C"/>
<path d="M319.499 97.6503L0 100.065L0 85.5759L319.499 83.3985V97.6503Z" fill="#F97AA2" fill-opacity="0.8"/>
<path d="M319.499 78.5684L0 83.3982L0 54.4196L319.499 50.0649V78.5684Z" fill="#F97AA2"/>
<path d="M319.499 42.7555L0 50.0001L0 6.53219L319.499 0.000125885V42.7555Z" fill="#7EC18C"/>
<path d="M674.499 97.6503L532.499 100.065V85.5759L674.499 83.3985V97.6503Z" fill="#F97AA2" fill-opacity="0.8"/>
<path d="M674.499 78.5684L532.499 83.3982V54.4196L674.499 50.0649V78.5684Z" fill="#F97AA2"/>
<path d="M674.482 42.7555L532.482 50.0001V6.53219L674.482 0.000125885V42.7555Z" fill="#7EC18C"/>
<path d="M532.499 97.6503L319.499 100.065V85.5759L532.499 83.3985V97.6503Z" fill="#F97AA2" fill-opacity="0.8"/>
<path d="M532.499 78.5684L319.499 83.3982V54.4196L532.499 50.0649V78.5684Z" fill="#F97AA2"/>
<path d="M532.489 42.7555L319.49 50.0001V6.53219L532.489 0.000125885V42.7555Z" fill="#7EC18C"/>
</g>
</svg>
