<svg width="305" height="256" viewBox="0 0 305 256" fill="none" xmlns="http://www.w3.org/2000/svg">
<path d="M299.834 255.671L304.022 238.661H278.894L275.118 255.671H299.834Z" fill="#EF8AAA" fill-opacity="0.6"/>
<path d="M299.834 238.66L304.022 204.641H278.894L275.118 238.66H299.834Z" fill="#EF8AAA" fill-opacity="0.6"/>
<path d="M299.834 204.642L304.022 153.613H278.894L275.118 204.642H299.834Z" fill="#EF8AAA" fill-opacity="0.6"/>
<path d="M299.834 153.613L304.022 85.5742H278.894L275.118 153.613H299.834Z" fill="#EF8AAA" fill-opacity="0.6"/>
<path d="M299.834 85.5743L304.022 0.526367L278.894 0.526367L275.118 85.5743H299.834Z" fill="#EF8AAA" fill-opacity="0.6"/>
<path d="M266.742 255.671L275.118 238.661H224.861L217.309 255.671H266.742Z" fill="#EF8AAA" fill-opacity="0.4"/>
<path d="M266.742 238.66L275.118 204.641H224.861L217.309 238.66H266.742Z" fill="#EF8AAA" fill-opacity="0.4"/>
<path d="M266.742 204.642L275.118 153.613H224.861L217.309 204.642H266.742Z" fill="#EF8AAA" fill-opacity="0.4"/>
<path d="M266.742 153.613L275.118 85.5742H224.861L217.309 153.613H266.742Z" fill="#EF8AAA" fill-opacity="0.4"/>
<path d="M266.742 85.5743L275.118 0.526367L224.861 0.526367L217.309 85.5743H266.742Z" fill="#EF8AAA" fill-opacity="0.4"/>
<path d="M204.745 255.671L217.309 238.661H141.924L130.596 255.671H204.745Z" fill="#8ECE9B" fill-opacity="0.4"/>
<path d="M111.225 255.671L130.071 238.661H16.9932L0.000713468 255.671H111.225Z" fill="#8ECE9B" fill-opacity="0.6"/>
<path d="M204.745 238.66L217.309 204.641H141.924L130.596 238.66H204.745Z" fill="#8ECE9B" fill-opacity="0.4"/>
<path d="M111.178 239.052L130.016 203.86H16.9856L9.03606e-05 239.052H111.178Z" fill="#8ECE9B" fill-opacity="0.6"/>
<path d="M204.745 204.642L217.309 153.613H141.924L130.596 204.642H204.745Z" fill="#8ECE9B" fill-opacity="0.4"/>
<path d="M111.225 204.837L130.071 153.809H16.9932L0.000713468 204.837H111.225Z" fill="#8ECE9B" fill-opacity="0.6"/>
<path d="M204.745 153.613L217.309 85.5742L141.924 85.5742L130.596 153.613H204.745Z" fill="#8ECE9B" fill-opacity="0.4"/>
<path d="M111.178 154.004L130.016 85.5742L16.9856 85.5742L9.03606e-05 154.004H111.178Z" fill="#8ECE9B" fill-opacity="0.6"/>
<path d="M204.745 85.5743L217.309 0.526367L141.924 0.526367L130.596 85.5743L204.745 85.5743Z" fill="#8ECE9B" fill-opacity="0.4"/>
<path d="M111.225 85.5743L130.071 0.526367L16.9932 0.526367L0.000713468 85.5743L111.225 85.5743Z" fill="#8ECE9B" fill-opacity="0.6"/>
</svg>
