<svg width="550" height="230" viewBox="0 0 550 230" fill="none" xmlns="http://www.w3.org/2000/svg">
<path d="M0.000435072 5.13477L11.7861 0.526367L11.7861 28.1768L0.000435072 32.3319L0.000435072 5.13477Z" fill="#F54F84" fill-opacity="0.4"/>
<path d="M11.7855 5.13477L35.3569 0.526367V28.1768L11.7855 32.3319L11.7855 5.13477Z" fill="#F54F84" fill-opacity="0.4"/>
<path d="M35.3577 5.13477L70.7148 0.526367V28.1768L35.3577 32.3319V5.13477Z" fill="#F54F84" fill-opacity="0.4"/>
<path d="M70.7146 5.13477L117.857 0.526367V28.1768L70.7146 32.3319V5.13477Z" fill="#F54F84" fill-opacity="0.4"/>
<path d="M-5.31077e-05 41.5493L11.7856 32.3325L11.7856 87.6333L-5.31077e-05 95.9435L-5.31077e-05 41.5493Z" fill="#F54F84" fill-opacity="0.6"/>
<path d="M11.786 41.5493L35.3574 32.3325L35.3574 87.6333L11.786 95.9435L11.786 41.5493Z" fill="#F54F84" fill-opacity="0.6"/>
<path d="M35.3577 41.5493L70.7148 32.3325V87.6333L35.3577 95.9435L35.3577 41.5493Z" fill="#F54F84" fill-opacity="0.6"/>
<path d="M70.7141 41.5493L117.857 32.3325V87.6333L70.7141 95.9435V41.5493Z" fill="#F54F84" fill-opacity="0.6"/>
<path d="M-5.31077e-05 109.892L11.7856 96.0669L11.7856 179.018L-5.31077e-05 191.483L-5.31077e-05 109.892Z" fill="#45AF5B" fill-opacity="0.6"/>
<path d="M11.786 109.892L35.3574 96.0669L35.3574 179.018L11.786 191.483L11.786 109.892Z" fill="#45AF5B" fill-opacity="0.6"/>
<path d="M35.3577 109.892L70.7148 96.0669V179.018L35.3577 191.483L35.3577 109.892Z" fill="#45AF5B" fill-opacity="0.6"/>
<path d="M70.7141 109.892L117.857 96.0669V179.018L70.7141 191.483V109.892Z" fill="#45AF5B" fill-opacity="0.6"/>
<path d="M-5.31077e-05 209.793L11.7856 191.36L11.7856 229.526H-5.31077e-05L-5.31077e-05 209.793Z" fill="#45AF5B" fill-opacity="0.4"/>
<path d="M11.786 209.793L35.3574 191.36V229.526H11.786L11.786 209.793Z" fill="#45AF5B" fill-opacity="0.4"/>
<path d="M35.3577 209.793L70.7148 191.36V229.526H35.3577V209.793Z" fill="#45AF5B" fill-opacity="0.4"/>
<path d="M70.7141 209.793L117.857 191.36V229.526H70.7141V209.793Z" fill="#45AF5B" fill-opacity="0.4"/>
<path d="M117.858 5.13477L176.787 0.526367V28.1768L117.858 32.3319V5.13477Z" fill="#F54F84" fill-opacity="0.4"/>
<path d="M117.858 41.5493L176.787 32.3325V87.6333L117.858 95.9435V41.5493Z" fill="#F54F84" fill-opacity="0.6"/>
<path d="M117.858 109.892L176.787 96.0669V179.018L117.858 191.483V109.892Z" fill="#45AF5B" fill-opacity="0.6"/>
<path d="M117.858 209.793L176.787 191.36V229.526H117.858V209.793Z" fill="#45AF5B" fill-opacity="0.4"/>
<path d="M373.215 5.13477L550 0.526367V28.1768L373.215 32.3319V5.13477Z" fill="#F54F84" fill-opacity="0.4"/>
<path d="M373.215 41.5493L550 32.3325V87.6333L373.215 95.9435V41.5493Z" fill="#F54F84" fill-opacity="0.6"/>
<path d="M373.215 109.892L550 96.0669V179.018L373.215 191.483V109.892Z" fill="#45AF5B" fill-opacity="0.6"/>
<path d="M373.215 209.793L550 191.36V229.526H373.215V209.793Z" fill="#45AF5B" fill-opacity="0.4"/>
<path d="M176.786 5.13477L255.357 0.526367V28.1768L176.786 32.3319V5.13477Z" fill="#F54F84" fill-opacity="0.4"/>
<path d="M176.786 41.5493L255.357 32.3325V87.6333L176.786 95.9435V41.5493Z" fill="#F54F84" fill-opacity="0.6"/>
<path d="M176.786 109.892L255.357 96.0669V179.018L176.786 191.483V109.892Z" fill="#45AF5B" fill-opacity="0.6"/>
<path d="M176.786 209.793L255.357 191.36V229.526H176.786V209.793Z" fill="#45AF5B" fill-opacity="0.4"/>
<path d="M255.357 5.13477L373.214 0.526367V28.1768L255.357 32.3319V5.13477Z" fill="#F54F84" fill-opacity="0.4"/>
<path d="M255.357 41.5493L373.214 32.3325V87.6333L255.357 95.9435V41.5493Z" fill="#F54F84" fill-opacity="0.6"/>
<path d="M255.357 109.892L373.214 96.0669V179.018L255.357 191.483V109.892Z" fill="#45AF5B" fill-opacity="0.6"/>
<path d="M255.357 209.793L373.214 191.36V229.526H255.357V209.793Z" fill="#45AF5B" fill-opacity="0.4"/>
</svg>
